<?xml version="1.0" encoding="UTF-8" standalone="no"?>
<!-- Created with Inkscape (http://www.inkscape.org/) -->

<svg
   width="1000"
   height="1000"
   viewBox="0 0 264.58333 264.58333"
   version="1.1"
   id="svg496"
   inkscape:version="1.2.2 (b0a8486, 2022-12-01)"
   sodipodi:docname="favicon.svg"
   xmlns:inkscape="http://www.inkscape.org/namespaces/inkscape"
   xmlns:sodipodi="http://sodipodi.sourceforge.net/DTD/sodipodi-0.dtd"
   xmlns="http://www.w3.org/2000/svg"
   xmlns:svg="http://www.w3.org/2000/svg">
  <sodipodi:namedview
     id="namedview498"
     pagecolor="#ffffff"
     bordercolor="#000000"
     borderopacity="0.25"
     inkscape:showpageshadow="2"
     inkscape:pageopacity="0.0"
     inkscape:pagecheckerboard="0"
     inkscape:deskcolor="#d1d1d1"
     inkscape:document-units="mm"
     showgrid="false"
     inkscape:zoom="0.19007701"
     inkscape:cx="-975.92024"
     inkscape:cy="589.23486"
     inkscape:window-width="1440"
     inkscape:window-height="786"
     inkscape:window-x="0"
     inkscape:window-y="25"
     inkscape:window-maximized="1"
     inkscape:current-layer="layer1" />
  <defs
     id="defs493">
    <filter
       x="-0.050667495"
       width="1.101335"
       y="-0.076613166"
       height="1.1532263"
       inkscape:menu="Non-Realistic 3D Shaders"
       inkscape:menu-tooltip="Comics cartoon drawing effect"
       inkscape:label="Comics"
       style="color-interpolation-filters:sRGB"
       id="filter4613-5">
      <feGaussianBlur
         in="SourceGraphic"
         stdDeviation="5"
         result="result8"
         id="feGaussianBlur4595-3" />
      <feComposite
         in2="result8"
         operator="xor"
         result="result19"
         id="feComposite4597-1" />
      <feComposite
         k2="1"
         operator="arithmetic"
         result="result17"
         in2="result8"
         id="feComposite4599-0"
         k1="0"
         k3="0"
         k4="0" />
      <feOffset
         result="result18"
         in="SourceGraphic"
         id="feOffset4601-1" />
      <feDisplacementMap
         in2="result17"
         in="result18"
         xChannelSelector="A"
         yChannelSelector="A"
         scale="100"
         result="result4"
         id="feDisplacementMap4603-9" />
      <feComposite
         in2="result4"
         result="result2"
         operator="arithmetic"
         in="SourceGraphic"
         k3="1"
         id="feComposite4605-5"
         k1="0"
         k2="0"
         k4="0" />
      <feComposite
         in2="SourceGraphic"
         result="fbSourceGraphic"
         in="result2"
         operator="in"
         id="feComposite4607-76" />
      <feComposite
         in2="SourceGraphic"
         operator="in"
         result="result15"
         id="feComposite4609-8" />
      <feComposite
         result="result16"
         in2="SourceGraphic"
         operator="in"
         in="result15"
         id="feComposite4611-5" />
    </filter>
    <inkscape:path-effect
       effect="spiro"
       id="path-effect4541-7-4"
       is_visible="true"
       lpeversion="1" />
    <filter
       x="-0.096738569"
       width="1.1934771"
       y="-0.069046218"
       height="1.1380924"
       inkscape:menu="Non-Realistic 3D Shaders"
       inkscape:menu-tooltip="Comics cartoon drawing effect"
       inkscape:label="Comics"
       style="color-interpolation-filters:sRGB"
       id="filter6305-3-7">
      <feGaussianBlur
         in="SourceGraphic"
         stdDeviation="5"
         result="result8"
         id="feGaussianBlur6287-7-9" />
      <feComposite
         in2="result8"
         operator="xor"
         result="result19"
         id="feComposite6289-0-6" />
      <feComposite
         k2="1"
         operator="arithmetic"
         result="result17"
         in2="result8"
         id="feComposite6291-1-6"
         k1="0"
         k3="0"
         k4="0" />
      <feOffset
         result="result18"
         in="SourceGraphic"
         id="feOffset6293-3-6" />
      <feDisplacementMap
         in2="result17"
         in="result18"
         xChannelSelector="A"
         yChannelSelector="A"
         scale="100"
         result="result4"
         id="feDisplacementMap6295-4-6" />
      <feComposite
         in2="result4"
         result="result2"
         operator="arithmetic"
         in="SourceGraphic"
         k3="1"
         id="feComposite6297-3-7"
         k1="0"
         k2="0"
         k4="0" />
      <feComposite
         in2="SourceGraphic"
         result="fbSourceGraphic"
         in="result2"
         operator="in"
         id="feComposite6299-7-0" />
      <feComposite
         in2="SourceGraphic"
         operator="in"
         result="result15"
         id="feComposite6301-7-4" />
      <feComposite
         result="result16"
         in2="SourceGraphic"
         operator="in"
         in="result15"
         id="feComposite6303-5-1" />
    </filter>
    <filter
       x="-0.34072907"
       width="1.6814581"
       y="-0.059708881"
       height="1.1194178"
       inkscape:menu="Non-Realistic 3D Shaders"
       inkscape:menu-tooltip="Comics cartoon drawing effect"
       inkscape:label="Comics"
       style="color-interpolation-filters:sRGB"
       id="filter6511-1-0">
      <feGaussianBlur
         in="SourceGraphic"
         stdDeviation="5"
         result="result8"
         id="feGaussianBlur6493-2-8" />
      <feComposite
         in2="result8"
         operator="xor"
         result="result19"
         id="feComposite6495-6-1" />
      <feComposite
         k2="1"
         operator="arithmetic"
         result="result17"
         in2="result8"
         id="feComposite6497-6-4"
         k1="0"
         k3="0"
         k4="0" />
      <feOffset
         result="result18"
         in="SourceGraphic"
         id="feOffset6499-5-8" />
      <feDisplacementMap
         in2="result17"
         in="result18"
         xChannelSelector="A"
         yChannelSelector="A"
         scale="100"
         result="result4"
         id="feDisplacementMap6501-4-8" />
      <feComposite
         in2="result4"
         result="result2"
         operator="arithmetic"
         in="SourceGraphic"
         k3="1"
         id="feComposite6503-1-4"
         k1="0"
         k2="0"
         k4="0" />
      <feComposite
         in2="SourceGraphic"
         result="fbSourceGraphic"
         in="result2"
         operator="in"
         id="feComposite6505-7-5" />
      <feComposite
         in2="SourceGraphic"
         operator="in"
         result="result15"
         id="feComposite6507-1-7" />
      <feComposite
         result="result16"
         in2="SourceGraphic"
         operator="in"
         in="result15"
         id="feComposite6509-3-9" />
    </filter>
    <filter
       x="-0.050667496"
       width="1.101335"
       y="-0.076613169"
       height="1.1532263"
       inkscape:menu="Non-Realistic 3D Shaders"
       inkscape:menu-tooltip="Comics cartoon drawing effect"
       inkscape:label="Comics"
       style="color-interpolation-filters:sRGB"
       id="filter4613-5-9">
      <feGaussianBlur
         in="SourceGraphic"
         stdDeviation="5"
         result="result8"
         id="feGaussianBlur4595-3-3" />
      <feComposite
         in2="result8"
         operator="xor"
         result="result19"
         id="feComposite4597-1-8" />
      <feComposite
         k2="1"
         operator="arithmetic"
         result="result17"
         in2="result8"
         id="feComposite4599-0-0"
         k1="0"
         k3="0"
         k4="0" />
      <feOffset
         result="result18"
         in="SourceGraphic"
         id="feOffset4601-1-2" />
      <feDisplacementMap
         in2="result17"
         in="result18"
         xChannelSelector="A"
         yChannelSelector="A"
         scale="100"
         result="result4"
         id="feDisplacementMap4603-9-4" />
      <feComposite
         in2="result4"
         result="result2"
         operator="arithmetic"
         in="SourceGraphic"
         k3="1"
         id="feComposite4605-5-8"
         k1="0"
         k2="0"
         k4="0" />
      <feComposite
         in2="SourceGraphic"
         result="fbSourceGraphic"
         in="result2"
         operator="in"
         id="feComposite4607-76-3" />
      <feComposite
         in2="SourceGraphic"
         operator="in"
         result="result15"
         id="feComposite4609-8-9" />
      <feComposite
         result="result16"
         in2="SourceGraphic"
         operator="in"
         in="result15"
         id="feComposite4611-5-0" />
    </filter>
    <inkscape:path-effect
       effect="spiro"
       id="path-effect4541-7-4-5"
       is_visible="true"
       lpeversion="1" />
    <filter
       x="-0.096738569"
       width="1.1934771"
       y="-0.069046218"
       height="1.1380924"
       inkscape:menu="Non-Realistic 3D Shaders"
       inkscape:menu-tooltip="Comics cartoon drawing effect"
       inkscape:label="Comics"
       style="color-interpolation-filters:sRGB"
       id="filter6305-3-7-2">
      <feGaussianBlur
         in="SourceGraphic"
         stdDeviation="5"
         result="result8"
         id="feGaussianBlur6287-7-9-2" />
      <feComposite
         in2="result8"
         operator="xor"
         result="result19"
         id="feComposite6289-0-6-7" />
      <feComposite
         k2="1"
         operator="arithmetic"
         result="result17"
         in2="result8"
         id="feComposite6291-1-6-3"
         k1="0"
         k3="0"
         k4="0" />
      <feOffset
         result="result18"
         in="SourceGraphic"
         id="feOffset6293-3-6-7" />
      <feDisplacementMap
         in2="result17"
         in="result18"
         xChannelSelector="A"
         yChannelSelector="A"
         scale="100"
         result="result4"
         id="feDisplacementMap6295-4-6-9" />
      <feComposite
         in2="result4"
         result="result2"
         operator="arithmetic"
         in="SourceGraphic"
         k3="1"
         id="feComposite6297-3-7-0"
         k1="0"
         k2="0"
         k4="0" />
      <feComposite
         in2="SourceGraphic"
         result="fbSourceGraphic"
         in="result2"
         operator="in"
         id="feComposite6299-7-0-2" />
      <feComposite
         in2="SourceGraphic"
         operator="in"
         result="result15"
         id="feComposite6301-7-4-3" />
      <feComposite
         result="result16"
         in2="SourceGraphic"
         operator="in"
         in="result15"
         id="feComposite6303-5-1-9" />
    </filter>
    <filter
       x="-0.34072907"
       width="1.6814581"
       y="-0.059708881"
       height="1.1194178"
       inkscape:menu="Non-Realistic 3D Shaders"
       inkscape:menu-tooltip="Comics cartoon drawing effect"
       inkscape:label="Comics"
       style="color-interpolation-filters:sRGB"
       id="filter6511-1-0-9">
      <feGaussianBlur
         in="SourceGraphic"
         stdDeviation="5"
         result="result8"
         id="feGaussianBlur6493-2-8-7" />
      <feComposite
         in2="result8"
         operator="xor"
         result="result19"
         id="feComposite6495-6-1-0" />
      <feComposite
         k2="1"
         operator="arithmetic"
         result="result17"
         in2="result8"
         id="feComposite6497-6-4-3"
         k1="0"
         k3="0"
         k4="0" />
      <feOffset
         result="result18"
         in="SourceGraphic"
         id="feOffset6499-5-8-9" />
      <feDisplacementMap
         in2="result17"
         in="result18"
         xChannelSelector="A"
         yChannelSelector="A"
         scale="100"
         result="result4"
         id="feDisplacementMap6501-4-8-8" />
      <feComposite
         in2="result4"
         result="result2"
         operator="arithmetic"
         in="SourceGraphic"
         k3="1"
         id="feComposite6503-1-4-6"
         k1="0"
         k2="0"
         k4="0" />
      <feComposite
         in2="SourceGraphic"
         result="fbSourceGraphic"
         in="result2"
         operator="in"
         id="feComposite6505-7-5-5" />
      <feComposite
         in2="SourceGraphic"
         operator="in"
         result="result15"
         id="feComposite6507-1-7-7" />
      <feComposite
         result="result16"
         in2="SourceGraphic"
         operator="in"
         in="result15"
         id="feComposite6509-3-9-6" />
    </filter>
  </defs>
  <g
     inkscape:label="Layer 1"
     inkscape:groupmode="layer"
     id="layer1">
    <path
       style="fill:#800000;stroke-width:0.264583;filter:url(#filter4613-5-9)"
       d="M 245.21929,8.1152554 H 8.3810593 v 31.7802096 8.32339 H 58.321389 V 164.74629 h 34.05022 6.05338 V 47.462185 H 243.70595 Z"
       id="path4539-9-8-2"
       inkscape:path-effect="#path-effect4541-7-4-5"
       inkscape:original-d="M 245.21929,8.1152554 H 8.3810593 v 31.7802096 8.32339 H 58.321389 V 164.74629 h 34.05022 6.05338 V 47.462185 H 243.70595 Z" />
    <g
       id="g6589-4-4-7"
       transform="translate(302.59253,-187.38342)">
      <g
         id="g6285-8-5-0"
         style="filter:url(#filter6305-3-7-2)">
        <path
           id="rect5681-5-6-8-3"
           style="fill:#d45500;stroke-width:0.264583"
           d="m -184.13849,253.9593 c -1.10248,0 -1.99006,0.88758 -1.99006,1.99006 v 68.98804 c 0,1.10248 0.88758,1.99006 1.99006,1.99006 h 120.065544 c 1.10248,0 1.99006,-0.88758 1.99006,-1.99006 v -68.98804 c 0,-1.10248 -0.88758,-1.99006 -1.99006,-1.99006 z m 97.329464,11.92279 c 16.22463,-0.28032 -25.954824,25.70514 -1.09864,27.08052 0.15015,0.008 0.58536,-0.0404 0.4501,0.0253 -0.4515,0.2194 -0.96844,0.26992 -1.43557,0.45372 -0.8254,0.32477 -1.62655,0.70818 -2.43654,1.0697 -5.56495,2.48374 -11.091254,5.05295 -16.647574,7.55613 -10.74147,4.88613 -21.72594,9.18151 -32.83417,13.1501 -2.44332,0.91893 -4.92899,1.71629 -7.41401,2.51251 -25.28754,8.10223 -33.4694,-17.46265 -8.17625,-25.54728 2.20243,-0.70398 4.40752,-1.40248 6.56911,-2.22674 10.43395,-3.72443 20.75226,-7.75285 30.83946,-12.3455 21.080914,-9.49368 -8.19429,3.71085 12.12381,-5.52007 5.16521,-2.34667 10.348204,-4.8653 15.999024,-5.78725 1.63796,-0.26723 2.97961,-0.40247 4.06125,-0.42116 z" />
        <path
           id="rect5683-9-1-8-9"
           style="fill:#d45500;stroke-width:0.358593"
           d="m -181.80943,255.94936 c -2.02512,0 -3.65559,1.63047 -3.65559,3.65559 v 164.49591 c 0,2.02512 1.63047,3.65507 3.65559,3.65507 h 31.16295 c 2.02513,0 3.6556,-1.62995 3.6556,-3.65507 v -106.7723 c -0.4119,0.13264 -0.82249,0.2695 -1.23455,0.40153 -25.28754,8.10223 -33.4694,-17.46265 -8.17625,-25.54728 2.20243,-0.70398 4.40752,-1.40248 6.56911,-2.22674 0.94854,-0.33858 1.89514,-0.68248 2.84169,-1.02629 v -29.32483 c 0,-2.02512 -1.63047,-3.65559 -3.6556,-3.65559 z" />
      </g>
      <rect
         style="fill:#d45500;stroke-width:0.255816;filter:url(#filter6511-1-0-9)"
         id="rect6329-5-9-9"
         width="35.218597"
         height="200.97513"
         x="-371.88409"
         y="67.637009"
         ry="3.1781569"
         transform="matrix(0.69393581,-0.72003687,0.72918293,0.68431882,0,0)" />
    </g>
    <path
       style="fill:#aa0000;stroke-width:1.25847"
       d="M 68.416714,53.323704 C 67.285408,51.420261 64.595919,48.181398 62.440067,46.12623 59.036441,42.881552 57.407428,42.331605 50.067833,41.949398 45.418946,41.70731 36.120826,42.351823 29.405331,43.38165 22.689835,44.411477 16.1047,44.968848 14.77165,44.620252 11.007687,43.635951 9.5241952,38.717173 9.5241952,27.221319 c 0,-9.356693 0.3480329,-10.972259 3.0372318,-14.098625 L 15.598658,9.5917122 H 126.25995 c 91.94466,0 111.0133,0.292127 112.74244,1.7271868 1.32848,1.102535 2.07402,3.605793 2.06148,6.92161 -0.0211,5.578424 -2.88168,19.211457 -4.33686,20.668754 -0.4865,0.487211 -31.37808,1.168996 -68.64794,1.515076 -66.27599,0.615426 -67.84134,0.687005 -71.314845,3.26107 -1.953313,1.447509 -5.146252,4.986969 -7.095464,7.865466 -3.519937,5.198141 -3.597037,5.233635 -11.369542,5.233635 -7.199339,0 -7.990152,-0.276942 -9.882505,-3.460806 z"
       id="path771" />
    <path
       style="fill:#aa4400;stroke-width:1.25847"
       d="m 62.050892,159.06575 c -2.050865,-2.27848 -2.192285,-6.22563 -1.887696,-52.68674 l 0.329221,-50.223738 2.733145,16.403312 c 1.503231,9.021823 3.688398,18.790732 4.855925,21.708687 l 2.122778,5.305374 h 7.999175 c 8.56009,0 9.461367,-0.659466 11.939058,-8.735829 0.543242,-1.770825 0.889979,12.351724 0.770519,31.383434 l -0.217196,34.60311 -4.820259,1.57863 c -2.651151,0.86825 -8.59745,1.92696 -13.214006,2.3527 -7.323084,0.67534 -8.676481,0.45991 -10.610664,-1.68894 z"
       id="path773" />
    <path
       style="fill:#aa4400;stroke-width:1.25847"
       d="m 121.14079,234.92046 c -1.91138,-1.91136 -2.12929,-6.25124 -2.12929,-42.40193 v -40.27264 l 3.26636,2.56933 c 1.7965,1.41313 8.59227,7.63634 15.10168,13.82936 l 11.83534,11.26004 -0.0193,24.96007 c -0.0106,13.72804 -0.43535,25.58318 -0.94388,26.34477 -1.81163,2.71318 -6.28391,4.14595 -15.56705,4.98716 -7.92118,0.7178 -9.75238,0.51536 -11.5439,-1.27616 z"
       id="path844" />
    <path
       style="fill:#aa4400;stroke-width:1.25847"
       d="m 133.54544,160.7712 -15.04024,-14.22639 -0.51801,-19.09336 -0.51797,-19.09336 2.97347,1.08711 c 1.63539,0.59791 3.61577,2.3499 4.40081,3.8933 0.78502,1.54341 2.05923,3.4381 2.83157,4.21043 0.77232,0.77232 1.40422,2.9702 1.40422,4.88416 0,5.15374 6.49008,11.82223 13.9019,14.28404 l 6.23369,2.0705 v 18.14675 c 0,9.98071 -0.14158,18.12794 -0.31462,18.10497 -0.17303,-0.023 -7.08271,-6.44364 -15.35482,-14.26815 z"
       id="path846" />
    <path
       style="fill:#aa4400;stroke-width:1.25847"
       d="m 201.44157,224.6744 c -18.68834,-17.62233 -36.68555,-34.73924 -39.99379,-38.03758 l -6.01498,-5.99697 0.35184,-17.54484 0.35185,-17.54484 45.30508,42.45138 c 24.9178,23.34826 46.90993,44.37003 48.87141,46.71503 l 3.56631,4.26365 -2.30784,4.08131 c -4.34758,7.68848 -5.05198,8.77332 -7.3339,11.29481 -4.96607,5.48744 -6.98149,4.08961 -42.79598,-29.68195 z"
       id="path850" />
    <path
       style="fill:#aa4400;stroke-width:0.464222"
       d="m 110.21678,140.2916 c -3.47798,-3.25204 -6.44388,-6.22615 -6.5909,-6.60914 -0.14703,-0.38298 -0.93478,-1.57382 -1.75057,-2.6463 -1.24444,-1.636 -1.48071,-2.3461 -1.46753,-4.41012 0.0249,-3.88756 1.03296,-5.65722 6.22733,-10.93115 4.42072,-4.48841 8.06906,-7.5447 9.00626,-7.5447 0.52959,0 0.68001,2.66954 0.85675,15.20331 0.11792,8.36182 0.34824,16.92673 0.51186,19.03314 0.16359,2.10642 0.12486,3.82713 -0.0861,3.82381 -0.21095,-0.003 -3.22913,-2.6668 -6.70713,-5.91885 z"
       id="path852" />
    <path
       style="fill:#803300;stroke-width:0.243433"
       d="m 224.07081,116.08422 c 0,-0.284 -0.32457,-0.36514 -1.4606,-0.36514 -1.29831,0 -1.4606,-0.0541 -1.4606,-0.48687 0,-0.27048 -0.16229,-0.48687 -0.36515,-0.48687 -0.20083,0 -0.36515,-0.16432 -0.36515,-0.36515 0,-0.22597 -0.22906,-0.36515 -0.60094,-0.36515 -0.43416,0 -0.56206,-0.10134 -0.46082,-0.36515 0.0972,-0.25338 -0.0169,-0.36515 -0.37279,-0.36515 -0.47784,0 -0.61134,-0.26693 -0.57831,-1.15631 0.006,-0.16736 -0.0899,-0.30429 -0.21365,-0.30429 -0.12578,0 -0.11008,-0.21465 0.0356,-0.48687 0.14331,-0.26777 0.17455,-0.48692 0.0694,-0.48699 -0.10512,-7e-5 -0.20864,-0.67216 -0.23004,-1.49353 -0.0214,-0.82137 -0.15765,-1.56678 -0.30278,-1.65648 -0.25434,-0.15719 -0.49036,-1.08231 -0.99282,-3.8915 -0.12994,-0.72652 -0.35154,-1.39219 -0.49243,-1.47927 -0.14089,-0.0871 -0.29227,-1.07182 -0.3364,-2.18833 -0.0841,-2.1271 0.2986,-3.911728 1.20091,-5.600807 0.25033,-0.468609 0.46433,-0.906788 0.47556,-0.973733 0.0112,-0.06695 0.23109,-0.505124 0.48859,-0.973735 0.54086,-0.984293 1.30321,-2.6045 1.34794,-2.864782 0.0169,-0.09797 0.12436,-0.291084 0.23893,-0.42913 0.11457,-0.138046 0.26198,-0.547034 0.3276,-0.908859 0.0656,-0.361826 0.18021,-0.756436 0.25467,-0.876909 0.56431,-0.913085 0.54939,-3.972235 -0.0283,-5.804956 -0.59001,-1.871728 -2.6275,-3.973028 -4.52514,-4.666853 -1.77398,-0.64861 -6.04308,-0.718571 -8.3125,-0.13622 -2.83542,0.727591 -6.06266,1.726345 -8.04927,2.491067 -0.66944,0.257691 -2.91512,1.098545 -4.99039,1.868559 -2.07527,0.770017 -4.70435,1.781927 -5.8424,2.248694 -1.13805,0.466765 -2.4526,0.99028 -2.9212,1.163365 -0.92309,0.34095 -2.38823,0.89522 -3.83408,1.450443 -4.37638,1.680591 -5.73083,2.181866 -11.01537,4.076745 -0.73638,0.264049 -1.69862,0.635693 -2.1383,0.825879 -0.43968,0.190185 -0.92916,0.345791 -1.08774,0.345791 -0.15858,0 -1.66111,0.474126 -3.33895,1.053614 -2.98137,1.029697 -7.68572,2.56572 -13.9646,4.559609 -1.71825,0.54564 -3.47096,1.204193 -3.89493,1.463448 -0.42397,0.259254 -1.04471,0.608427 -1.37943,0.775938 -3.6005,1.801862 -8.66182,5.501862 -10.73661,7.848852 -1.33233,1.50713 -2.67004,3.30554 -3.16481,4.25478 -0.28136,0.53981 -0.59219,1.03129 -0.69072,1.09219 -0.0986,0.0609 -2.19128,-1.8603 -4.65056,-4.26933 -2.45925,-2.40904 -4.73165,-4.4454 -5.04978,-4.52525 -0.31814,-0.0798 -1.12334,-0.0806 -1.78938,-0.002 l -1.21094,0.14336 0.1,-14.29192 c 0.055,-7.860557 0.18341,-14.591893 0.2854,-14.958526 0.102,-0.366633 0.28245,-0.606645 0.40103,-0.533358 0.11859,0.07328 0.21561,-0.07003 0.21561,-0.318476 0,-0.563152 0.44646,-1.148969 2.38011,-3.123097 0.84048,-0.858043 1.82637,-1.633055 2.19091,-1.722247 0.36454,-0.08919 0.73115,-0.26635 0.81468,-0.393686 0.0835,-0.127336 0.90316,-0.291825 1.82137,-0.365533 1.14771,-0.09213 1.51868,-0.192907 1.187,-0.322471 -0.26538,-0.103653 22.90537,-0.194482 51.49056,-0.201843 28.58517,-0.0074 51.82875,0.07811 51.6524,0.189936 -0.20175,0.127929 0.24452,0.262388 1.20354,0.362628 0.83831,0.08762 1.58509,0.252436 1.65953,0.36626 0.0744,0.113824 0.54714,0.341201 1.05046,0.50528 0.50331,0.164081 0.85774,0.39116 0.78762,0.504619 -0.0701,0.113458 0.10144,0.27895 0.38125,0.367757 0.27981,0.08881 0.44896,0.221263 0.37588,0.294341 -0.0731,0.07308 0.0803,0.432176 0.34074,0.797997 1.52043,2.135235 1.6243,4.733766 0.48651,12.170087 -0.80774,5.279173 -1.11064,7.232718 -1.75518,11.319655 -0.40118,2.543879 -0.87306,5.392052 -1.04862,6.329267 -0.17557,0.93722 -0.42927,2.30653 -0.5638,3.04292 -0.13452,0.73639 -0.36315,1.64726 -0.50806,2.02418 -0.14492,0.3769 -0.26348,0.95201 -0.26348,1.27802 0,0.32601 -0.0829,0.59274 -0.18427,0.59274 -0.10135,0 -0.45661,0.93113 -0.78946,2.06918 -0.33285,1.13805 -0.68811,2.06919 -0.78946,2.06919 -0.10135,0 -0.18428,0.16431 -0.18428,0.36515 0,0.20083 -0.10954,0.36515 -0.24343,0.36515 -0.13389,0 -0.24343,0.16432 -0.24343,0.36515 0,0.20083 -0.10955,0.36515 -0.24344,0.36515 -0.13389,0 -0.24343,0.16432 -0.24343,0.36515 0,0.20083 -0.10954,0.36515 -0.24343,0.36515 -0.13389,0 -0.24344,0.16432 -0.24344,0.36515 0,0.20286 -0.21638,0.36515 -0.48686,0.36515 -0.32458,0 -0.48687,0.16229 -0.48687,0.48686 0,0.32458 -0.16229,0.48687 -0.48687,0.48687 -0.27048,0 -0.48686,0.16229 -0.48686,0.36515 0,0.28401 -0.32458,0.36515 -1.46061,0.36515 -1.13602,0 -1.4606,-0.0811 -1.4606,-0.36515 z m -8.94618,-48.258341 c -0.8368,-0.04753 -2.20611,-0.04753 -3.04291,0 -0.83681,0.04753 -0.15215,0.08643 1.52146,0.08643 1.6736,0 2.35826,-0.03889 1.52145,-0.08643 z"
       id="path1322" />
    <path
       style="fill:#803300;stroke-width:0.107643"
       d="m 155.31641,136.10109 c -1.27656,-1.19845 -2.78995,-2.61853 -3.36309,-3.15573 l -1.04206,-0.97672 1.41232,-0.24353 c 3.06458,-0.52843 6.05099,-1.4439 11.44951,-3.50978 1.6577,-0.63437 3.64372,-1.39153 4.41337,-1.68259 0.76965,-0.29106 2.0533,-0.79201 2.85255,-1.11323 0.79925,-0.32122 2.88215,-1.14022 4.62866,-1.81999 3.4812,-1.35494 9.00466,-3.59713 11.03344,-4.47891 0.71045,-0.30879 2.28473,-0.98744 3.49841,-1.50813 2.06337,-0.88521 2.78777,-1.20454 5.4629,-2.40814 0.57724,-0.25971 1.54307,-0.69392 2.14628,-0.9649 1.4036,-0.63052 4.7698,-2.3146 4.7698,-2.38628 0,-0.0699 0.005,-0.0722 -4.51981,1.99151 -9.12587,4.16205 -15.93474,7.02578 -24.70535,10.39076 -4.3868,1.68307 -11.47992,4.26331 -11.60515,4.22157 -0.0592,-0.0198 0.75962,-0.35643 1.81973,-0.74817 3.44636,-1.27354 5.98868,-2.23547 7.47109,-2.82683 0.79925,-0.31883 2.54307,-1.00036 3.87516,-1.51452 2.26283,-0.87341 9.26502,-3.69639 10.71051,-4.31802 7.04248,-3.0286 12.69657,-5.54658 14.60293,-6.50324 0.57284,-0.28746 1.68731,-0.89409 2.47662,-1.34807 0.78931,-0.45398 1.63987,-0.91351 1.89013,-1.02118 1.26122,-0.54261 2.76097,-1.81967 3.52811,-3.00425 0.42235,-0.65217 0.94809,-1.81915 1.04264,-2.31433 0.0308,-0.16118 0.11317,-0.20772 0.32782,-0.18516 0.33222,0.0349 0.33897,0.0113 0.51297,-1.79073 0.12981,-1.34443 0.12981,-1.55551 -1e-5,-1.25341 -0.0793,0.18448 -0.0931,0.16908 -0.0967,-0.10764 -0.004,-0.32116 0.14862,-1.643962 0.26119,-2.260513 l 0.059,-0.322929 -0.16171,0.269108 c -0.50093,0.833654 0.37837,-2.318049 0.96112,-3.444968 0.22991,-0.444598 0.12257,-0.405691 -0.16516,0.05987 -0.12999,0.210327 -0.26001,0.358748 -0.28894,0.329824 -0.1395,-0.139504 0.91192,-2.044711 2.30085,-4.169198 l 0.67664,-1.034984 1.05254,-0.05298 c 0.60489,-0.03045 1.22422,-0.125855 1.4562,-0.22433 0.22201,-0.09425 0.40366,-0.149717 0.40366,-0.123272 0,0.02643 -0.15743,0.278278 -0.34984,0.559633 -0.19241,0.281356 -0.36414,0.578665 -0.38161,0.660689 -0.0175,0.08202 -0.17786,0.361468 -0.35642,0.620987 -0.17855,0.25952 -0.34294,0.566897 -0.36531,0.683065 -0.0224,0.116165 -0.18896,0.426725 -0.37018,0.690128 -0.18123,0.263404 -0.32951,0.538192 -0.32951,0.610643 0,0.07245 -0.1719,0.439126 -0.38201,0.81484 -0.21012,0.375713 -0.35716,0.683114 -0.32676,0.683114 0.0304,0 -0.041,0.224692 -0.15877,0.499314 -0.11771,0.274624 -0.23504,0.66345 -0.26073,0.86406 -0.0257,0.20061 -0.0768,0.413451 -0.11359,0.472983 -0.14632,0.236754 -0.25123,0.751191 -0.13905,0.68186 0.0729,-0.04506 0.0864,0.02024 0.0384,0.186298 -0.0406,0.140624 -0.10178,0.352558 -0.13586,0.470964 -0.12212,0.424376 -0.0926,1.431944 0.10093,3.444584 0.10816,1.12487 0.18653,2.22555 0.17416,2.44595 -0.0124,0.2204 0.0135,0.43674 0.0575,0.48075 0.044,0.044 0.47725,0.10623 0.96275,0.13828 l 0.88274,0.0583 -0.92726,0.30324 -0.92726,0.30323 -0.20213,0.66477 c -0.11117,0.36562 -0.19002,0.70226 -0.17522,0.74809 0.0148,0.0458 -0.0731,0.27935 -0.19532,0.51893 -0.12223,0.23959 -0.23963,0.57304 -0.26088,0.741 -0.0471,0.37218 -0.20679,0.68648 -0.61063,1.20185 -0.16904,0.21574 -0.30735,0.43723 -0.30735,0.49221 0,0.055 -0.40425,0.49454 -0.89832,0.9768 -0.49407,0.48225 -0.85426,0.8915 -0.80042,0.90945 0.0538,0.0179 -0.4579,0.43275 -1.13721,0.92179 -0.86977,0.62614 -1.96235,1.25382 -3.69369,2.12198 -1.35222,0.67806 -2.51397,1.27911 -2.58166,1.33567 -0.0677,0.0566 -0.15247,0.0735 -0.18838,0.0375 -0.0359,-0.0359 -0.0653,-0.006 -0.0653,0.0667 0,0.0726 -0.0484,0.102 -0.10765,0.0654 -0.0592,-0.0366 -0.10764,-0.0124 -0.10764,0.0538 0,0.0662 -0.0484,0.0904 -0.10764,0.0538 -0.0592,-0.0366 -0.10765,-0.0124 -0.10765,0.0538 0,0.0662 -0.0443,0.093 -0.0985,0.0595 -0.0541,-0.0335 -0.11541,-0.01 -0.13614,0.0523 -0.0208,0.0622 -0.14598,0.12125 -0.27831,0.13122 -0.13233,0.01 -0.2406,0.0591 -0.2406,0.10921 0,0.0501 -0.0443,0.0637 -0.0985,0.0302 -0.0541,-0.0335 -0.1147,-0.0242 -0.13455,0.0206 -0.0402,0.0907 -1.02143,0.54567 -1.27401,0.59078 -0.0888,0.0159 -0.18568,0.0589 -0.21528,0.0957 -0.10289,0.1278 -1.41784,0.75221 -2.61599,1.24223 -0.66294,0.27113 -1.54443,0.66369 -1.95885,0.87235 -0.41443,0.20865 -1.38322,0.63433 -2.15287,0.94595 -0.76965,0.31162 -1.90798,0.80687 -2.52962,1.10056 -0.62164,0.29368 -1.39667,0.62003 -1.72229,0.72522 -0.32562,0.10519 -0.98792,0.37577 -1.47177,0.60128 -1.15262,0.53722 -1.99961,0.88633 -2.71888,1.12068 -0.32153,0.10476 -0.73326,0.27601 -0.91497,0.38056 -0.1817,0.10455 -0.9843,0.46462 -1.78355,0.80016 -2.99543,1.25752 -3.10514,1.3092 -2.5294,1.19161 0.38329,-0.0783 -0.457,0.33468 -1.66869,0.82008 -0.44403,0.17788 -1.27339,0.58487 -1.84301,0.90443 -0.56963,0.31955 -1.36734,0.7298 -1.7727,0.91167 -0.47132,0.21147 -0.6888,0.36048 -0.60327,0.41334 0.0933,0.0577 -0.045,0.25802 -0.45745,0.66251 -0.35656,0.34973 -0.54471,0.60858 -0.47408,0.65223 0.0758,0.0469 0.0519,0.10888 -0.068,0.17595 -0.16282,0.0911 -0.13742,0.14284 0.21134,0.43032 0.35267,0.2907 0.43478,0.31497 0.74422,0.22 0.29242,-0.0897 0.4359,-0.0621 0.90088,0.17351 0.30419,0.15415 0.66436,0.27525 0.80038,0.26912 0.13603,-0.006 0.512,0.0434 0.83549,0.11001 0.6297,0.1297 2.87085,0.2669 3.93285,0.24077 0.35523,-0.009 1.0576,-0.005 1.56083,0.008 0.50323,0.013 1.16928,0.0146 1.4801,0.003 1.06941,-0.0382 1.37959,-0.041 3.80902,-0.0341 1.95568,0.006 2.52929,-0.0264 2.90637,-0.16205 0.35514,-0.12772 0.70624,-0.15412 1.43859,-0.10816 0.90535,0.0568 3.77812,-0.0494 11.46401,-0.42362 1.74651,-0.085 5.88809,-0.27888 9.20351,-0.43075 3.31541,-0.15187 6.70618,-0.32288 7.53503,-0.38003 0.82885,-0.0572 2.20938,-0.15295 3.06784,-0.21287 0.85845,-0.0599 2.16632,-0.1337 2.90636,-0.16394 1.15784,-0.0473 1.45066,-0.098 2.09905,-0.36353 0.41443,-0.16971 1.21859,-0.41321 1.78704,-0.54113 0.95187,-0.21419 1.05719,-0.26401 1.33289,-0.63054 0.18511,-0.24609 0.51977,-0.49524 0.87688,-0.65285 0.53668,-0.23685 0.58896,-0.29338 0.73924,-0.79944 0.089,-0.29951 0.16172,-0.60325 0.16172,-0.67497 0,-0.0717 0.0686,-0.15673 0.15241,-0.1889 0.0838,-0.0322 0.20874,-0.32979 0.27757,-0.66138 0.0688,-0.3316 0.19372,-0.73431 0.2775,-0.89492 0.0838,-0.1606 0.15264,-0.47365 0.153,-0.69567 2.7e-4,-0.22201 0.0491,-0.40366 0.10831,-0.40366 0.0592,0 0.10764,-0.26642 0.10764,-0.59204 0,-0.32562 0.0397,-0.59204 0.0881,-0.59204 0.0485,0 0.15216,-0.811 0.23043,-1.80223 0.0896,-1.13474 0.19129,-1.84239 0.27454,-1.91067 0.0862,-0.0707 0.21952,-1.12971 0.38297,-3.04171 0.13793,-1.61331 0.2896,-2.93329 0.33704,-2.93329 0.0474,0 0.0863,-0.26641 0.0863,-0.59203 0,-0.32562 0.0432,-0.59204 0.096,-0.59204 0.0528,0 0.13125,-0.49651 0.17429,-1.10335 0.043,-0.60683 0.11976,-1.1297 0.17048,-1.16191 0.0507,-0.0322 0.1249,-0.7588 0.16485,-1.61465 0.04,-0.85584 0.11144,-1.58171 0.15885,-1.61303 0.0474,-0.0313 0.11996,-0.70948 0.1612,-1.50701 0.0412,-0.79753 0.10764,-1.47427 0.14755,-1.50387 0.0399,-0.0296 0.15937,-0.8773 0.26546,-1.88376 0.10609,-1.00647 0.2358,-1.84609 0.28824,-1.86582 0.0524,-0.0197 0.0953,-0.41937 0.0953,-0.888057 0,-0.496355 0.045,-0.852175 0.10764,-0.852175 0.0607,0 0.10765,-0.30499 0.10765,-0.699682 0,-0.394693 0.0469,-0.69968 0.10764,-0.69968 0.0592,0 0.10764,-0.1211 0.10764,-0.269111 0,-0.148008 0.0553,-0.269108 0.12297,-0.269108 0.0887,0 0.10426,0.322157 0.0558,1.157166 -0.0369,0.636442 -0.0994,2.042737 -0.13884,3.125117 -0.0394,1.08237 -0.11296,1.99347 -0.16342,2.02466 -0.0505,0.0312 -0.0918,0.87447 -0.0918,1.87395 0,1.09537 -0.0428,1.84365 -0.10765,1.88375 -0.0648,0.0401 -0.10764,0.78333 -0.10764,1.86859 0,0.99113 -0.042,1.84807 -0.0934,1.90431 -0.0514,0.0562 -0.17585,1.7492 -0.27663,3.76214 -0.10078,2.01292 -0.22829,3.74398 -0.28336,3.84678 -0.0551,0.10281 -0.10495,0.97472 -0.11085,1.93758 -0.006,0.96287 -0.0517,2.35616 -0.10189,3.09621 -0.0501,0.74005 -0.14007,2.05295 -0.19985,2.91756 -0.0598,0.86462 -0.18524,1.93028 -0.27881,2.36815 -0.0936,0.43788 -0.19833,0.92785 -0.23279,1.08883 -0.14126,0.65985 0.23183,0.78589 0.48267,0.16306 0.0771,-0.19146 0.18548,-0.43222 0.2408,-0.53502 0.0553,-0.10281 0.1006,-0.28446 0.1006,-0.40367 0,-0.11921 0.0517,-0.21674 0.11489,-0.21674 0.0632,0 0.0909,0.0848 0.0617,0.18837 -0.0293,0.10361 -0.0857,0.39694 -0.12537,0.65184 -0.106,0.68083 -0.80103,1.91679 -1.51022,2.68558 -1.30397,1.41357 -2.92688,1.9378 -6.77571,2.18871 -2.22134,0.1448 -12.55078,0.64434 -15.44681,0.74702 -1.4505,0.0514 -3.00056,0.12059 -3.44459,0.15371 -0.81641,0.0609 -4.54328,0.20311 -15.60828,0.59557 -3.34502,0.11865 -8.16475,0.2909 -10.71051,0.38276 -2.54577,0.0919 -6.41788,0.19386 -8.6047,0.22664 -2.18682,0.0328 -4.06093,0.091 -4.16468,0.12941 -0.10375,0.0384 -0.76073,0.0393 -1.45995,0.002 -0.69922,-0.0373 -1.38345,-0.0252 -1.52052,0.0269 -0.13706,0.0521 -0.76677,0.0949 -1.39936,0.095 -1.45084,5.3e-4 -2.9009,0.168 -3.7336,0.43158 -0.35523,0.11245 -1.05759,0.30585 -1.56083,0.42978 -0.50323,0.12394 -1.04621,0.31984 -1.20663,0.43534 -0.16041,0.1155 -0.30572,0.20965 -0.32292,0.20923 -0.0172,-5.3e-4 -1.07572,-0.98133 -2.35228,-2.17978 z"
       id="path1324" />
    <path
       style="fill:#ff6600;stroke-width:0.719701"
       d="m 223.45728,115.86192 c -2.14793,-0.55843 -4.83245,-3.5194 -4.8407,-5.3392 -0.004,-0.9442 -0.49009,-3.30656 -1.07956,-5.24969 -1.55333,-5.12042 -1.33818,-7.649708 1.08678,-12.775618 3.52234,-7.445603 2.76555,-12.811927 -2.16648,-15.362386 -4.51298,-2.333746 -9.31595,-1.196456 -32.73847,7.752109 -6.72921,2.570891 -17.77085,6.49921 -24.53698,8.729597 -15.26146,5.030795 -22.55896,9.273478 -27.41377,15.938058 l -1.49249,2.04886 -4.52811,-4.09771 c -2.93097,-2.65238 -5.15424,-4.0977 -6.30327,-4.0977 h -1.77517 l 0.34528,-14.347697 c 0.3801,-15.794892 0.63691,-16.776035 5.10876,-19.517606 2.2374,-1.371671 3.76481,-1.404993 56.16013,-1.225118 l 53.86019,0.184901 1.73674,2.019313 c 2.27302,2.642849 2.25897,6.075881 -0.086,21.011131 -2.27281,14.475676 -3.53118,18.974066 -6.22041,22.236566 -2.10808,2.55747 -2.5818,2.75118 -5.11648,2.09219 z"
       id="path1413" />
    <path
       style="fill:#ff6600;stroke-width:0.719701"
       d="m 237.69645,255.57055 c -6.20575,-3.2341 -13.67306,-9.97851 -62.79394,-56.71493 l -18.89218,-17.97509 0.0415,-14.08637 c 0.0228,-7.74751 0.26903,-15.36848 0.54716,-16.93548 l 0.50567,-2.84911 35.2446,33.07656 c 38.16064,35.81322 59.07641,55.99165 60.18524,58.06352 1.28807,2.40678 -9.34135,18.57665 -12.19438,18.55054 -0.26651,-0.002 -1.45615,-0.51078 -2.64366,-1.12964 z"
       id="path1415" />
    <path
       style="fill:#ff6600;stroke-width:0.719701"
       d="m 133.50905,160.10963 -14.7048,-13.82934 -0.49432,-18.29204 c -0.27188,-10.06062 -0.3511,-18.43525 -0.17608,-18.61029 0.17505,-0.17503 1.33864,0.20941 2.58578,0.85432 2.64144,1.36595 7.94207,9.14999 7.94207,11.66304 0,5.5119 6.93386,12.60484 15.01,15.35435 l 5.14162,1.75045 v 17.46943 c 0,9.60818 -0.13488,17.46942 -0.29974,17.46942 -0.16487,0 -6.9169,-6.2232 -15.00453,-13.82934 z"
       id="path1417" />
    <path
       style="fill:#ff6600;stroke-width:0.719701"
       d="m 109.55723,138.89153 c -11.624923,-11.31365 -11.734143,-13.52745 -1.1819,-23.95322 l 6.93515,-6.85201 0.56111,7.91671 c 0.30861,4.35419 0.47881,12.71083 0.37822,18.57031 l -0.18288,10.6536 z"
       id="path1419" />
    <path
       style="fill:#ff6600;stroke-width:0.719701"
       d="m 123.18853,235.51576 c -1.22899,-0.53047 -2.49549,-1.72861 -2.81445,-2.66251 -0.31896,-0.93391 -0.71453,-19.31728 -0.87903,-40.85192 l -0.29911,-39.1539 2.39385,1.9844 c 1.31662,1.09142 8.0047,7.21345 14.86238,13.6045 l 12.46855,11.6201 -0.27438,24.8297 c -0.15089,13.65633 -0.52398,25.37144 -0.82907,26.03358 -0.802,1.74071 -4.4391,3.26329 -9.79945,4.10234 -8.74863,1.36939 -12.51043,1.49463 -14.82929,0.49371 z"
       id="path1421" />
    <path
       style="fill:#d40000;stroke-width:0.719701"
       d="m 154.9497,135.09446 -2.68772,-2.75247 4.21323,-1.21812 c 12.00747,-3.4716 44.73176,-17.53676 49.39453,-21.23016 2.66799,-2.11333 4.83428,-6.52086 4.85372,-9.87538 0.0174,-3.008603 2.35827,-8.845017 3.54751,-8.845017 1.00902,0 0.95735,0.399674 -0.38808,3.001441 -0.73598,1.423215 -1.18446,4.338931 -1.25948,8.188216 -0.0933,4.785 -0.41337,6.38341 -1.6041,8.00974 -1.83297,2.50353 -8.28696,5.99892 -21.9027,11.86222 -5.73962,2.47163 -11.70186,5.1573 -13.24943,5.96814 -3.03103,1.58811 -4.68689,3.57399 -3.7509,4.49848 1.38723,1.37017 52.74421,-0.348 56.8296,-1.90126 2.67841,-1.01833 3.53369,-3.11272 4.86708,-11.91847 1.33179,-8.79518 1.6274,-6.81081 0.68347,4.58806 -0.85585,10.33529 -0.51976,10.08291 -14.49373,10.88388 -6.10187,0.34976 -21.92424,1.01037 -35.16083,1.46802 -13.23659,0.45766 -24.77256,1.10054 -25.6355,1.42863 -1.27675,0.48542 -2.06949,0.0839 -4.25667,-2.15595 z"
       id="path1423" />
    <path
       style="fill:#d40000;stroke-width:0.719701"
       d="m 64.150599,160.16291 c -3.190478,-1.58702 -3.415745,-3.27945 -3.72282,-27.96662 -0.16002,-12.86466 -0.04673,-33.592059 0.251777,-46.060887 L 61.22227,63.46481 63.187436,74.260331 c 2.236761,12.287348 3.028156,15.586221 5.136436,21.411115 l 1.497806,4.138285 h 7.075408 c 3.891465,0 7.885694,-0.369195 8.87603,-0.820431 0.990362,-0.451236 2.446866,-2.151531 3.236648,-3.778433 l 1.435999,-2.958001 0.03588,32.178754 0.03588,32.17875 -3.660087,1.08694 c -7.842488,2.32896 -20.268909,3.67828 -22.706832,2.4656 z"
       id="path1425" />
    <path
       style="fill:#ff6600;fill-opacity:1;stroke-width:0.719701"
       d="M 71.774462,55.840855 C 70.767934,55.470618 69.417712,54.276111 68.774007,53.186394 66.779816,49.810483 61.675025,44.402487 59.308036,43.158142 56.341369,41.598556 43.226582,41.333903 32.941407,42.626071 16.161982,44.734137 14.772047,44.747265 12.978092,42.814635 10.906855,40.583277 9.9109631,35.23687 9.9109631,26.348811 c 0,-7.884402 0.4911459,-9.699586 3.7314979,-13.790861 l 2.248959,-2.8395273 108.7434,0.3550593 c 59.80888,0.195282 110.03889,0.634444 111.62223,0.975915 2.52126,0.543748 2.99609,0.976911 3.82319,3.487692 1.05556,3.204341 0.24851,11.233692 -1.94798,19.380474 l -1.17489,4.3577 -5.02822,0.499258 c -2.76552,0.274593 -31.42327,0.84657 -63.68388,1.271061 -57.14462,0.751918 -68.01651,1.177001 -71.004716,2.776232 -1.816814,0.972335 -6.060969,5.639225 -8.553,9.404943 -1.079341,1.631006 -2.844853,3.195884 -4.098793,3.63301 -2.65631,0.925994 -10.275993,0.914749 -12.814299,-0.01892 z"
       id="path1427" />
    <path
       style="fill:#ff7f2a;fill-opacity:1;stroke-width:0.719701"
       d="m 155.46206,134.89211 -2.33643,-2.41059 5.22079,-1.66994 c 9.32375,-2.98232 26.56246,-10.09134 37.60735,-15.50878 12.39095,-6.07767 13.33551,-7.0397 15.08701,-15.36603 1.10984,-5.276006 2.34988,-8.479446 3.02215,-7.807184 0.19792,0.197918 -1.8e-4,1.032576 -0.44022,1.854795 -0.44004,0.822216 -0.9991,4.169579 -1.24235,7.438579 -0.24326,3.269 -0.70027,6.64379 -1.01557,7.49954 -0.94457,2.56358 -6.67067,5.93109 -21.38134,12.57433 -14.95476,6.75347 -17.25987,8.00542 -17.92338,9.73448 -0.72737,1.89551 1.29233,2.38252 9.85952,2.3774 9.5655,-0.006 35.65276,-1.13731 42.34795,-1.83695 6.09099,-0.63649 7.75594,-2.13588 9.1186,-8.21188 l 1.04915,-4.67806 -0.41653,5.39776 c -0.22909,2.96876 -0.85334,6.08696 -1.38723,6.92931 -1.51766,2.39454 -3.28678,2.56156 -45.30619,4.27743 -14.64153,0.59788 -27.27477,1.25116 -28.07389,1.45173 -1.00306,0.25175 -2.17638,-0.38175 -3.78939,-2.04594 z"
       id="path1705" />
    <path
       style="fill:#ff6600;fill-opacity:1;stroke-width:0.719701"
       d="m 234.93049,253.28605 c -5.81999,-3.93601 -15.2819,-12.5323 -48.69269,-44.23805 l -29.86761,-28.34338 0.26046,-15.79768 c 0.14322,-8.68872 0.4681,-16.02537 0.72191,-16.30368 0.50147,-0.54987 60.58873,55.69666 82.10846,76.86017 l 13.2798,13.05996 -2.28029,4.59249 c -2.95823,5.95788 -8.42692,12.86905 -10.18304,12.86905 -0.74595,0 -3.1521,-1.2145 -5.347,-2.69888 z"
       id="path1776" />
    <path
       style="fill:#ffaaaa;fill-opacity:1;stroke-width:0.719701"
       d="M 68.079952,51.409813 C 62.849722,45.234233 60.023945,42.90718 56.863921,42.17329 52.685806,41.202964 39.891085,41.403296 30.39511,42.587722 18.755957,44.039466 14.73646,43.998387 13.35216,42.413546 11.326669,40.094639 10.569723,35.973793 10.550911,27.163745 c -0.01931,-9.105753 0.45257,-10.742933 4.619545,-16.023387 0.907204,-1.149637 7.793355,-1.1877269 111.026894,-0.61413 60.53284,0.336339 110.59681,0.830189 111.25328,1.097445 3.17816,1.293856 3.4762,9.107332 0.78136,20.483882 -1.15625,4.881195 -1.45142,5.396912 -3.38487,5.913996 -1.16498,0.311565 -30.47224,1.070897 -65.12723,1.687403 -60.69278,1.079713 -70.164391,1.488766 -73.297428,3.165514 -0.792585,0.424179 -3.117691,2.878309 -5.166942,5.453621 -5.733653,7.205571 -6.394714,7.579859 -13.387731,7.579859 h -5.978287 z"
       id="path1945" />
    <path
       style="fill:#aa0000;fill-opacity:1;stroke-width:0.719701"
       d="m 63.637122,159.39197 c -0.732076,-0.55654 -1.608587,-2.45009 -1.947836,-4.20789 -0.775811,-4.01977 -0.882306,-83.95213 -0.112475,-84.427906 0.311865,-0.192747 1.444493,4.130511 2.516929,9.60724 1.072435,5.476727 2.681234,12.011663 3.575103,14.522077 l 1.625256,4.564388 7.193121,0.210402 c 8.838803,0.25854 10.132509,-0.04333 11.777398,-2.748127 1.278757,-2.102755 1.309052,-1.761791 1.775671,19.991026 0.261091,12.17165 0.475271,26.04654 0.475959,30.83308 v 8.70281 l -6.538992,1.60367 c -8.493733,2.08305 -18.502868,2.74696 -20.341404,1.34923 z"
       id="path1947" />
    <path
       style="fill:#aa0000;fill-opacity:1;stroke-width:0.719701"
       d="m 67.259029,50.079896 c -7.529062,-8.758172 -7.867993,-8.868248 -25.298531,-8.216352 -7.929272,0.296551 -17.493562,0.582101 -21.254006,0.634555 l -6.837177,0.09537 -1.362684,-2.790856 C 10.566733,35.829622 10.423858,20.053531 12.294012,16.32437 15.275813,10.378455 10.931858,10.95174 54.742994,10.722264 118.32877,10.38921 237.26304,11.64472 238.27804,12.659722 c 1.16875,1.168755 1.10964,12.97449 -0.0912,18.216119 -1.73056,7.553772 1.30353,6.903098 -36.11558,7.745124 -77.9116,1.75321 -96.3493,2.280301 -100.75818,2.880445 l -4.678074,0.636783 -5.802101,6.237045 c -6.260571,6.729904 -7.875852,7.50889 -15.429071,7.440842 -3.142112,-0.02831 -3.384947,-0.199327 -8.144775,-5.736186 z"
       id="path2156" />
  </g>
</svg>
